<svg xmlns="http://www.w3.org/2000/svg" xmlns:xlink="http://www.w3.org/1999/xlink" width="40" height="40" viewBox="0 0 40 40">
  <defs>
    <clipPath id="clip-instagram-icon">
      <rect width="40" height="40"/>
    </clipPath>
  </defs>
  <g id="instagram-icon" clip-path="url(#clip-instagram-icon)">
    <g id="Group_337" data-name="Group 337" transform="translate(-638 -4361)">
      <circle id="Ellipse_543" data-name="Ellipse 543" cx="20" cy="20" r="20" transform="translate(638 4361)" fill="#005f73"/>
      <path id="instagram" d="M6.64,2h6.72A4.643,4.643,0,0,1,18,6.64v6.72A4.64,4.64,0,0,1,13.36,18H6.64A4.643,4.643,0,0,1,2,13.36V6.64A4.64,4.64,0,0,1,6.64,2M6.48,3.6A2.88,2.88,0,0,0,3.6,6.48v7.04A2.878,2.878,0,0,0,6.48,16.4h7.04a2.88,2.88,0,0,0,2.88-2.88V6.48A2.878,2.878,0,0,0,13.52,3.6H6.48M14.2,4.8a1,1,0,1,1-1,1,1,1,0,0,1,1-1M10,6a4,4,0,1,1-4,4,4,4,0,0,1,4-4m0,1.6A2.4,2.4,0,1,0,12.4,10,2.4,2.4,0,0,0,10,7.6Z" transform="translate(648 4371)" fill="#f5f5f5"/>
    </g>
  </g>
</svg>
